<svg xmlns="http://www.w3.org/2000/svg" viewBox="0 0 100 100" enable-background="new 0 0 100 100"><path d="M76.188 51.877c-2.879-6.614-7.426-12.287-14.65-14.221 3.492-1.936 7.756-5.453 7.518-9.898-.066-1.254-.475-2.452-.608-3.695-.139-1.299 1.808-9.063.578-9.828-1.194-.744-3.825-.81-5.229-.887-2.209-.122-3.748.851-5.53 2.013-4.135 2.701-6.151-1.914-8.144-4.848-1.104-1.629-3.808 1.181-4.825 1.766-1.33.763-2.81 1.248-4.26.517-.815-.411-1.5-1.055-2.12-1.714-.584-.622-1.252-1.968-2.239-1.945-2.401.056-2.086 3.287-2.057 4.78.057 2.829-.04 5.658-.254 8.479-.186 2.445-.691 4.924-.04 7.342 1.122 4.158 4.77 7.083 8.542 8.798-9.747 3.374-15.503 10.87-18.741 20.358-2.539 7.443-3.878 15.393-5.153 23.141-.236 1.433-.504 3.029-.188 4.472.437 1.976 3.621 2.191 5.245 2.41 6.046.819 12.19 1.348 18.276 1.771 6.235.434 28.347.21 34.439-2.179 2.278-.894 4.178-1.82 4.529-4.391.536-3.926-1.6-24.225-5.089-32.241zm-37.674-22.122c-1.315-2.634-.733-6.669-.388-8.542l.228-1.236c.215-1.165.215-2.361.15-3.54 3.048 2.246 6.823-.107 9.444-1.981 1.315 2.08 3.322 5.834 6.167 5.935 1.401.049 3.154-.826 4.383-1.45.825-.419 1.603-.926 2.348-1.476-.05.037.662-.638.55-.641 1.396.039 3.095.619 4.515.839-.35 2.226-1.345 4.494-1.145 6.777.194 2.19.56 4.118-.421 6.205-1.731 3.684-6.066 5.162-9.845 5.521 1.667-1.24 3.255-3.338 3.792-5.381.26-.992.502-2.026.286-3.057-.401-1.919-1.388-.185-1.684.687-.616 1.816-1.675 3.596-2.821 5.114-.517.834-1.472 2.755-2.481 2.716-.407-.016-.813-.041-1.218-.079-.226-.626-.489-1.241-.739-1.858-.382-.941-.646-1.922-1.019-2.867-1.044-2.048-1.522-4.905-1.959-7.139-.228-1.162-.435-2.335-.688-3.49-.412-1.877-1.284-.713-1.445.539-.328 2.551.181 5.305.912 7.733.304 1.007.542 2.128 1.073 3.045.409.865.791 1.756 1.309 2.564.144.207.861.973.861 1.255-3.857-.651-8.314-2.484-10.165-6.193zm10.702 11.206c4.137-.501 8.563-.573 12.506.953 6.204 2.402 10.228 9.076 12.592 15.606.244.82.438 1.653.649 2.481-2.812-2.521-6.744-4.075-10.112-5.731-2.363-1.161-4.841-2.097-7.271-3.106-2.458-1.021-4.907-2.065-7.38-3.052-4.089-1.631-8.964-3.318-13.436-2.78 3.67-2.531 8.06-3.84 12.452-4.371zm-14.34 5.85c-.169.094.01-.084 1.138-.94 1.042.515 2.401.48 3.521.748 1.389.331 2.743.786 4.086 1.27 2.545.918 5.051 1.95 7.527 3.038 2.763 1.214 5.522 2.419 8.311 3.573 3.48 1.442 7.024 2.773 10.441 4.354 1.122.52 2.258 1.011 3.378 1.536.661.311 1.305.686 2.017.872.225.958.432 1.919.625 2.884.721 3.624 1.148 7.279 1.646 10.938-1.988-1.221-4.691-1.663-6.894-2.439-2.063-.727-4.113-1.484-6.174-2.217-3.695-1.313-7.479-2.789-11.047-4.4-3.513-1.584-7.055-3.115-10.515-4.813-2.538-1.245-5.091-2.455-7.593-3.77-1.711-.9-3.838-2.486-5.745-2.806 1.098-3.009 2.899-5.705 5.278-7.828zm3.546 39.77l-9.118-1.008-4.559-.504c-.651-.071-1.726.096-2.088-.612-.693-1.347-.191-3.466.029-4.864.428-2.719 1.086-5.399 1.783-8.06.244 1.124 2.812 2.452 3.709 2.962 2.008 1.228 4.015 2.455 6.038 3.658 3.288 1.956 6.86 3.674 10.407 5.113 3.814 1.55 7.642 2.911 11.597 4.05-5.934.176-11.897-.083-17.798-.735zm38.669-1.898c.402-.922-.235-5.811-2.208-4.352-.77.557.199 4.578.828 5.158-.799.268-1.636.419-2.467.542.38-.888.383-6.438-1.822-5.273-.776.399-.35 1.916-.243 2.606.087.57.08 1.11.127 1.685l.021 1.214c-.569.056-1.138.104-1.706.148.202-1.032.133-2.211-.908-2.806-1.701-.972-1.395 2.253-1.259 2.958l-1.665.105c.112-.951-1.186-3.946-2.319-2.303-.317.461-.023 1.098-.087 1.607-.032.257.088.597.091.865-.809.071-1.446.185-2.233-.039-3.989-1.136-7.873-2.698-11.744-4.184-3.718-1.426-7.335-3.018-10.985-4.612-2.752-1.203-5.4-2.67-8.094-4.001-.676-.334-1.352-.669-2.04-.975-.635-.281-3.178-2.046-3.872-1.629 1.454-5.53 3.075-11.061 4.977-16.456 1.283 1.92 4.028 3.171 5.939 4.359 2.342 1.454 4.745 2.807 7.179 4.104 3.273 1.746 6.676 3.255 10.033 4.838 3.751 1.77 7.861 3.232 11.835 4.44 1.946.591 3.896 1.18 5.859 1.712 1.989.54 5.283 1.869 7.299 1.117.364 2.542.95 7.596-.536 9.172zM43.665 57.694c.273-.242.161-.088 0 0 1.3-.706.14-2.492-1.111-1.814-1.357.729.1 2.707 1.111 1.814zM49.426 54.864c1.462-.211 1.041-2.215-.253-2.355-1.615-.176-1.367 2.597.253 2.355zM54.083 57.33c1.305-.703.141-2.491-1.11-1.815-1.355.733-.282 2.57 1.11 1.815zM53.794 61.528l-.002-.001c-.777-.059-1.237 1.5-.053 1.599 1.112.097 1.118-1.501.055-1.598zM49.017 60.573l.002-.001c1.358-.573.448-2.408-.839-2.219-1.607.238-.67 2.852.837 2.22zM36.828 54.697c1.418-.185 1.052-2.329-.351-2.142-1.24.167-.967 2.324.351 2.142zM26.421 79.694c-1.476.301-.938 2.527.524 2.23 1.292-.266.848-2.512-.524-2.23zM32.655 81.502c-1.053-.421-1.637 1.201-.594 1.617.926.367 1.572-1.227.594-1.617zM70.305 67.078c1.493-.156.999-2.34-.451-2.188-1.555.163-1.318 2.377.451 2.188z"/></svg>