<svg xmlns="http://www.w3.org/2000/svg" viewBox="0 0 100 100" enable-background="new 0 0 100 100"><path d="M46.796 5c-23.307 0-41.565 19.294-41.565 43.925 0 25.406 18.646 46.075 41.565 46.075 11.476 0 23.468-5.11 32.901-14.021 9.578-9.046 15.071-20.729 15.071-32.054.001-22.989-22.865-43.925-47.972-43.925zm0 85c-20.162 0-36.564-18.426-36.564-41.075-.001-21.827 16.06-38.925 36.564-38.925 22.089 0 42.973 18.917 42.973 38.925 0 20.729-21.286 41.075-42.973 41.075zm-4.296-47.812c-2.599 0-4.559 2.284-4.559 5.313 0 2.869 1.875 4.872 4.559 4.872 2.699 0 4.657-2.049 4.657-4.872 0-2.98-2.046-5.313-4.657-5.313zm17.707-19.369c-.29 0-.588.016-.884.032l-.573.023c-1.148 0-2.842.166-4.275 1.599l-.287.276c-.807.767-2.158 2.05-2.158 4 0 2.142 1.547 3.688 2.29 4.432 1.42 1.418 2.91 2.137 4.431 2.137 1.99 0 3.309-1.336 4.097-2.135l.168-.169c1.11-1.109 1.649-2.505 1.649-4.265l.018-.542c.051-1.147.128-2.88-1.191-4.2-1.192-1.188-2.767-1.188-3.285-1.188zm-22.707 4.917c2.683 0 4.949-2.398 4.949-5.236 0-2.657-2.035-4.512-4.949-4.512-2.89 0-4.908 1.855-4.908 4.512 0 2.887 2.202 5.236 4.908 5.236zm40 7.216c-2.729 0-4.867 2.217-4.867 5.048 0 2.875 2.184 5.213 4.867 5.213 2.805 0 5.358-2.485 5.358-5.213 0-2.689-2.504-5.048-5.358-5.048zm-55 5.165c-2.747 0-4.818 2.099-4.818 4.883 0 2.787 2.117 4.971 4.818 4.971 2.783 0 5.046-2.23 5.046-4.971 0-2.738-2.216-4.883-5.046-4.883zm57.146 22.323c0-1.04.001-2.334-.753-3.635-.622-1.075-1.516-1.939-2.731-2.644-.968-.561-2.16-1.133-3.661-1.133-1.433 0-2.703.315-3.776.937-1.207.698-2.178 1.643-2.808 2.731-.666 1.15-1.032 2.501-1.032 3.803 0 1.544.686 2.724 1.186 3.586l.057.097c.771 1.331 1.888 1.979 2.8 2.506l.181.105c.795.466 1.885 1.103 3.394 1.103 1.172 0 2.53-.063 3.811-.804 1.028-.596 1.9-1.527 2.667-2.851.707-1.223.687-2.46.672-3.364l-.007-.437zm-22.146 7.666c-2.626 0-5.438 1.967-5.438 4.894 0 2.729 2.643 5.309 5.438 5.309 2.771 0 5.392-2.58 5.392-5.309 0-2.927-2.788-4.894-5.392-4.894zm-19.522-3.317c-.828-.833-2.213-2.227-4.228-2.227-1.908 0-3.646 1.06-4.639 2.051-1.217 1.218-2.003 3.038-2.003 4.637 0 1.948 1.399 3.115 2.151 3.743.141.117.281.229.4.348l.27.28c.701.74 1.873 1.979 3.821 1.979 1.955 0 3.146-1.242 3.856-1.985l.251-.258c.676-.678 1.936-1.938 1.936-4.106 0-1.754-.572-3.215-1.7-4.344l-.115-.118z"/></svg>