<svg xmlns="http://www.w3.org/2000/svg" viewBox="0 0 100 100" enable-background="new 0 0 100 100"><path d="M51.006 75.061v12.447c0 .553-.447 1-1 1s-1-.447-1-1v-12.447c0-.552.447-1 1-1s1 .447 1 1zm10.523-1.656c-.55-.077-1.049.315-1.12.863l-1.609 12.375c-.071.548.314 1.05.862 1.12l.13.009c.495 0 .925-.367.99-.871l1.609-12.375c.072-.548-.314-1.05-.862-1.121zm13.731-6.5l-5.516 22.247c-.006.379-.185.739-.513.959-.217.145-5.453 3.538-19.2 3.538-13.749 0-18.985-3.394-19.202-3.538-.248-.166-.426-.419-.498-.709l-5.571-22.471c-7.563-9.439-4.217-25.807 3.797-33.722l.001-.001c-.296-1.015-.461-2.103-.461-3.282 0-4.66 2.885-7.854 7.962-8.902l-.011-.137c0-5.927 3.783-8.217 6.286-9.732 2.426-1.469 2.649-1.81 1.994-3.039-.211-.395-.185-.874.068-1.243.253-.368.687-.568 1.134-.514 8.511 1.023 18.449 5.441 18.449 14.527l-.014.172c5.079 1.151 7.967 4.335 7.967 8.867 0 1.188-.168 2.284-.468 3.305 7.991 7.91 11.329 24.237 3.796 33.675zm-25.252 2.417l.003-.001-.001-.001-.002.002zm-11.56-48.435c0 2.773 4.864 4.786 11.565 4.786s11.565-2.013 11.565-4.786c0-8.234-10.152-11.035-14.525-11.859.05 2.043-1.865 3.204-3.477 4.179-2.403 1.456-5.128 3.105-5.128 7.68zm-7.951 9.039c0 2.509 0 10.145 19.517 10.145 10.825 0 17.054-2.26 18.913-6.875l.034-.099c.371-.959.571-2.01.571-3.171 0-4.23-3.219-5.91-6.238-6.558-1.708 2.92-6.541 4.705-13.28 4.705-6.762 0-11.606-1.796-13.299-4.734-3.009.578-6.218 2.215-6.218 6.587zm-7.553 25.673c2.319 1.387 3.752.28 5.839-1.338 2.35-1.823 5.273-4.094 10.104-2.453 1.397.474 2.591 1.561 3.744 2.613 1.034.941 2.01 1.831 3.016 2.206 2.235.833 4.787.211 6.354-1.548.419-.47.864-1.072 1.337-1.71 1.753-2.368 3.918-5.303 7.324-5.091 2.074.138 3.438 1.046 4.759 1.925.563.375 1.146.762 1.794 1.098 1.771.922 3.458.758 5.156-.491 1.593-1.171 2.866-3.062 3.728-4.621-1.13-4.035-3.114-7.791-5.685-10.587-2.836 4.56-9.655 6.871-20.4 6.871-10.759 0-17.582-2.316-20.411-6.889-4.539 4.926-7.267 12.841-6.659 20.015zm49.165 14.038c-.877.514-1.93.998-3.201 1.321-2.879.728-5.227-.057-6.569-.831-1.009.882-2.984 2.178-6.021 2.371-2.865.165-5.078-.779-6.323-1.65-1.147.801-3.095 1.669-5.633 1.669-.213 0-.43-.006-.65-.019-2.835-.18-4.879-1.369-6.015-2.376-1.342.775-3.693 1.565-6.576.835-1.282-.325-2.34-.815-3.221-1.334l4.636 18.699c1.363.698 6.573 2.927 17.495 2.927 10.872 0 16.009-2.161 17.438-2.894l4.64-18.718zm-33.671 3.768c-.548.071-.934.573-.862 1.121l1.609 12.374c.065.504.495.871.99.871l.13-.009c.548-.07.934-.572.862-1.12l-1.609-12.375c-.072-.547-.574-.939-1.12-.862zm5.297-53.479l1.879.822c.131.057.267.084.4.084.386 0 .753-.224.917-.6.222-.506-.009-1.096-.515-1.317l-1.879-.822c-.509-.223-1.097.009-1.317.515-.221.507.009 1.097.515 1.318zm11.494-.293c.186 0 .372-.051.54-.159l1.725-1.108c.464-.299.599-.917.3-1.382-.297-.465-.915-.599-1.382-.301l-1.725 1.108c-.464.299-.599.917-.3 1.382.191.298.513.46.842.46zm-6.732-3.567l.256-.034 1.982-.523c.534-.141.853-.688.712-1.222-.141-.535-.693-.851-1.222-.711l-1.982.523c-.534.141-.853.688-.712 1.222.118.448.524.745.966.745zm12.004 14.473l1.877.822c.131.057.267.084.4.084.386 0 .753-.224.917-.599.222-.506-.009-1.096-.515-1.317l-1.877-.822c-.509-.222-1.097.01-1.317.515-.221.506.009 1.095.515 1.317zm-24.113.639c.186 0 .373-.051.54-.159l1.725-1.109c.465-.298.599-.917.3-1.382-.297-.464-.917-.599-1.382-.3l-1.725 1.109c-.465.298-.599.917-.3 1.382.19.297.513.459.842.459zm16.439 2.457l.257-.033 1.98-.523c.533-.141.853-.688.711-1.222-.141-.535-.69-.851-1.223-.711l-1.98.523c-.533.141-.853.688-.711 1.222.118.448.524.744.966.744zm-8.579.112c.121.445.524.738.964.738l.263-.036c.533-.145.848-.694.703-1.227l-.537-1.979c-.146-.533-.694-.847-1.227-.703-.533.145-.848.694-.703 1.227l.537 1.98z"/></svg>