<svg style="position: absolute; width: 0; height: 0; overflow: hidden;" version="1.1" xmlns="http://www.w3.org/2000/svg" xmlns:xlink="http://www.w3.org/1999/xlink">
<defs>
<symbol id="icon-bag" viewBox="0 0 32 32">
<title>bag</title>
<path class="path1" d="M24.38 16.601c-0.921-2.116-2.376-3.932-4.688-4.551 1.117-0.62 2.482-1.745 2.406-3.167-0.021-0.401-0.152-0.785-0.195-1.182-0.044-0.416 0.579-2.9 0.185-3.145-0.382-0.238-1.224-0.259-1.673-0.284-0.707-0.039-1.199 0.272-1.77 0.644-1.323 0.864-1.968-0.612-2.606-1.551-0.353-0.521-1.219 0.378-1.544 0.565-0.426 0.244-0.899 0.399-1.363 0.165-0.261-0.132-0.48-0.338-0.678-0.548-0.187-0.199-0.401-0.63-0.716-0.622-0.768 0.018-0.668 1.052-0.658 1.53 0.018 0.905-0.013 1.811-0.081 2.713-0.060 0.782-0.221 1.576-0.013 2.349 0.359 1.331 1.526 2.267 2.733 2.815-3.119 1.080-4.961 3.478-5.997 6.515-0.812 2.382-1.241 4.926-1.649 7.405-0.076 0.459-0.161 0.969-0.060 1.431 0.14 0.632 1.159 0.701 1.678 0.771 1.935 0.262 3.901 0.431 5.848 0.567 1.995 0.139 9.071 0.067 11.020-0.697 0.729-0.286 1.337-0.582 1.449-1.405 0.172-1.256-0.512-7.752-1.628-10.317zM12.324 9.522c-0.421-0.843-0.235-2.134-0.124-2.733 0.024-0.134 0.049-0.266 0.073-0.396 0.069-0.373 0.069-0.756 0.048-1.133 0.975 0.719 2.183-0.034 3.022-0.634 0.421 0.666 1.063 1.867 1.973 1.899 0.448 0.016 1.009-0.264 1.403-0.464 0.264-0.134 0.513-0.296 0.751-0.472-0.016 0.012 0.212-0.204 0.176-0.205 0.447 0.012 0.99 0.198 1.445 0.268-0.112 0.712-0.43 1.438-0.366 2.169 0.062 0.701 0.179 1.318-0.135 1.986-0.554 1.179-1.941 1.652-3.15 1.767 0.533-0.397 1.042-1.068 1.213-1.722 0.083-0.317 0.161-0.648 0.092-0.978-0.128-0.614-0.444-0.059-0.539 0.22-0.197 0.581-0.536 1.151-0.903 1.636-0.165 0.267-0.471 0.882-0.794 0.869-0.13-0.005-0.26-0.013-0.39-0.025-0.072-0.2-0.156-0.397-0.236-0.595-0.122-0.301-0.207-0.615-0.326-0.917-0.334-0.655-0.487-1.57-0.627-2.284-0.073-0.372-0.139-0.747-0.22-1.117-0.132-0.601-0.411-0.228-0.462 0.172-0.105 0.816 0.058 1.698 0.292 2.475 0.097 0.322 0.173 0.681 0.343 0.974 0.131 0.277 0.253 0.562 0.419 0.82 0.046 0.066 0.276 0.311 0.276 0.402-1.234-0.208-2.66-0.795-3.253-1.982zM15.749 13.108c1.324-0.16 2.74-0.183 4.002 0.305 1.985 0.769 3.273 2.904 4.029 4.994 0.078 0.262 0.14 0.529 0.208 0.794-0.9-0.807-2.158-1.304-3.236-1.834-0.756-0.372-1.549-0.671-2.327-0.994-0.787-0.327-1.57-0.661-2.362-0.977-1.308-0.522-2.868-1.062-4.3-0.89 1.174-0.81 2.579-1.229 3.985-1.399zM11.16 14.98c-0.054 0.030 0.003-0.027 0.364-0.301 0.333 0.165 0.768 0.154 1.127 0.239 0.444 0.106 0.878 0.252 1.308 0.406 0.814 0.294 1.616 0.624 2.409 0.972 0.884 0.388 1.767 0.774 2.66 1.143 1.114 0.461 2.248 0.887 3.341 1.393 0.359 0.166 0.723 0.324 1.081 0.492 0.212 0.1 0.418 0.22 0.645 0.279 0.072 0.307 0.138 0.614 0.2 0.923 0.231 1.16 0.367 2.329 0.527 3.5-0.636-0.391-1.501-0.532-2.206-0.78-0.66-0.233-1.316-0.475-1.976-0.709-1.182-0.42-2.393-0.892-3.535-1.408-1.124-0.507-2.258-0.997-3.365-1.54-0.812-0.398-1.629-0.786-2.43-1.206-0.548-0.288-1.228-0.796-1.838-0.898 0.351-0.963 0.928-1.826 1.689-2.505zM12.295 27.706c-0.973-0.108-1.945-0.215-2.918-0.323-0.486-0.053-0.972-0.108-1.459-0.161-0.208-0.023-0.552 0.031-0.668-0.196-0.222-0.431-0.061-1.109 0.009-1.556 0.137-0.87 0.348-1.728 0.571-2.579 0.078 0.36 0.9 0.785 1.187 0.948 0.643 0.393 1.285 0.786 1.932 1.171 1.052 0.626 2.195 1.176 3.33 1.636 1.22 0.496 2.445 0.932 3.711 1.296-1.899 0.056-3.807-0.027-5.695-0.235zM24.669 27.099c0.129-0.295-0.075-1.86-0.707-1.393-0.246 0.178 0.064 1.465 0.265 1.651-0.256 0.086-0.524 0.134-0.789 0.173 0.122-0.284 0.123-2.060-0.583-1.687-0.248 0.128-0.112 0.613-0.078 0.834 0.028 0.182 0.026 0.355 0.041 0.539-0.014 0.131 0.022 0.259 0.007 0.388-0.182 0.018-0.364 0.033-0.546 0.047 0.065-0.33 0.043-0.708-0.291-0.898-0.544-0.311-0.446 0.721-0.403 0.947-0.178 0.011-0.355 0.022-0.533 0.034 0.036-0.304-0.38-1.263-0.742-0.737-0.101 0.148-0.007 0.351-0.028 0.514-0.010 0.082 0.028 0.191 0.029 0.277-0.259 0.023-0.463 0.059-0.715-0.012-1.276-0.364-2.519-0.863-3.758-1.339-1.19-0.456-2.347-0.966-3.515-1.476-0.881-0.385-1.728-0.854-2.59-1.28-0.216-0.107-0.433-0.214-0.653-0.312-0.203-0.090-1.017-0.655-1.239-0.521 0.465-1.77 0.984-3.54 1.593-5.266 0.411 0.614 1.289 1.015 1.9 1.395 0.749 0.465 1.518 0.898 2.297 1.313 1.047 0.559 2.136 1.042 3.211 1.548 1.2 0.566 2.516 1.034 3.787 1.421 0.623 0.189 1.247 0.378 1.875 0.548 0.636 0.173 1.691 0.598 2.336 0.357 0.116 0.813 0.304 2.431-0.172 2.935z"></path>
<path class="path2" d="M13.973 18.462c0.087-0.077 0.052-0.028 0 0 0.416-0.226 0.045-0.797-0.356-0.58-0.434 0.233 0.032 0.866 0.356 0.58z"></path>
<path class="path3" d="M15.816 17.556c0.468-0.068 0.333-0.709-0.081-0.754-0.517-0.056-0.437 0.831 0.081 0.754z"></path>
<path class="path4" d="M17.307 18.346c0.418-0.225 0.045-0.797-0.355-0.581-0.434 0.235-0.090 0.822 0.355 0.581z"></path>
<path class="path5" d="M17.214 19.689c0.044 0.004 0.088 0.007-0.001-0-0.249-0.019-0.396 0.48-0.017 0.512 0.356 0.031 0.358-0.48 0.018-0.511z"></path>
<path class="path6" d="M15.685 19.383c-0.054 0.022-0.107 0.045 0 0s0.054-0.022 0.001-0c0.435-0.183 0.143-0.771-0.268-0.71-0.514 0.076-0.214 0.913 0.268 0.71z"></path>
<path class="path7" d="M11.785 17.503c0.454-0.059 0.337-0.745-0.112-0.685-0.397 0.053-0.309 0.744 0.112 0.685z"></path>
<path class="path8" d="M8.455 25.502c-0.472 0.096-0.3 0.809 0.168 0.714 0.413-0.085 0.271-0.804-0.168-0.714z"></path>
<path class="path9" d="M10.45 26.081c-0.337-0.135-0.524 0.384-0.19 0.517 0.296 0.117 0.503-0.393 0.19-0.517z"></path>
<path class="path10" d="M22.498 21.465c0.478-0.050 0.32-0.749-0.144-0.7-0.498 0.052-0.422 0.761 0.144 0.7z"></path>
</symbol>
<symbol id="icon-chocolate" viewBox="0 0 32 32">
<title>chocolate</title>
<path class="path1" d="M30.331 17.667l-1.342-3.954c-0.015-0.044-0.035-0.085-0.057-0.124-0.003-0.006-0.005-0.013-0.009-0.019-0.031-0.055-0.070-0.103-0.112-0.148-0.011-0.011-0.023-0.021-0.034-0.032-0.035-0.033-0.072-0.063-0.112-0.088-0.009-0.006-0.015-0.014-0.024-0.019l-12.497-7.449c-0.255-0.152-0.574-0.15-0.827 0.005l-11.544 7.060c-0.008 0.005-0.014 0.012-0.022 0.018-0.042 0.028-0.082 0.060-0.119 0.096-0.014 0.014-0.027 0.027-0.040 0.042-0.030 0.034-0.056 0.070-0.080 0.11-0.010 0.016-0.021 0.031-0.029 0.047-0.003 0.006-0.008 0.011-0.011 0.018l-1.765 3.592c-0.188 0.382-0.044 0.843 0.327 1.051l14.826 8.305c0.122 0.068 0.256 0.102 0.391 0.102 0.145 0 0.29-0.039 0.418-0.118l12.321-7.555c0.319-0.195 0.459-0.585 0.339-0.939zM15.74 7.456l10.949 6.526-9.666 5.969-11.258-6.394 9.974-6.1zM17.234 24.551l-13.755-7.705 1.056-2.149 12.112 6.879c0.122 0.070 0.259 0.104 0.395 0.104 0.146 0 0.292-0.040 0.42-0.119l10.336-6.382 0.813 2.397-11.376 6.976z"></path>
<path class="path2" d="M14.378 11.832l1.609-1.015 1.694 1.137c0.137 0.092 0.292 0.136 0.445 0.136 0.258 0 0.511-0.124 0.665-0.355 0.246-0.367 0.148-0.864-0.219-1.11l-2.127-1.427c-0.263-0.176-0.605-0.181-0.873-0.012l-2.049 1.293c-0.374 0.236-0.485 0.73-0.25 1.103s0.73 0.485 1.103 0.25z"></path>
<path class="path3" d="M18.537 17.604c0.258 0 0.511-0.124 0.665-0.354 0.246-0.367 0.148-0.864-0.219-1.11l-2.127-1.426c-0.261-0.175-0.6-0.181-0.867-0.016l-1.997 1.238c-0.375 0.233-0.491 0.726-0.259 1.101s0.726 0.492 1.101 0.259l1.559-0.966 1.698 1.139c0.137 0.092 0.292 0.136 0.445 0.136z"></path>
<path class="path4" d="M17.881 14.408c0.253 0.363 0.751 0.451 1.114 0.199l1.464-1.019 1.672 1.122c0.137 0.092 0.292 0.136 0.445 0.136 0.258 0 0.511-0.124 0.665-0.355 0.246-0.367 0.148-0.864-0.219-1.11l-2.127-1.427c-0.274-0.184-0.633-0.181-0.903 0.008l-1.913 1.332c-0.363 0.252-0.452 0.751-0.199 1.114z"></path>
<path class="path5" d="M14.615 14.492c0.246-0.367 0.148-0.864-0.219-1.11l-2.127-1.427c-0.262-0.176-0.602-0.181-0.87-0.014l-2.049 1.281c-0.375 0.234-0.489 0.728-0.255 1.102s0.728 0.489 1.102 0.255l1.61-1.006 1.696 1.138c0.137 0.092 0.292 0.136 0.445 0.136 0.258 0 0.511-0.124 0.665-0.355z"></path>
</symbol>
<symbol id="icon-cookie" viewBox="0 0 32 32">
<title>cookie</title>
<path class="path1" d="M14.975 1.6c-7.458 0-13.301 6.174-13.301 14.056 0 8.13 5.967 14.744 13.301 14.744 3.672 0 7.51-1.635 10.528-4.487 3.065-2.895 4.823-6.633 4.823-10.257 0-7.356-7.317-14.056-15.351-14.056zM14.975 28.8c-6.452 0-11.7-5.896-11.7-13.144-0-6.985 5.139-12.456 11.7-12.456 7.068 0 13.751 6.053 13.751 12.456 0 6.633-6.812 13.144-13.751 13.144z"></path>
<path class="path2" d="M13.6 13.5c-0.832 0-1.459 0.731-1.459 1.7 0 0.918 0.6 1.559 1.459 1.559 0.864 0 1.49-0.656 1.49-1.559 0-0.954-0.655-1.7-1.49-1.7z"></path>
<path class="path3" d="M19.266 7.302c-0.093 0-0.188 0.005-0.283 0.010-0.062 0.004-0.124 0.007-0.183 0.007-0.367 0-0.909 0.053-1.368 0.512-0.029 0.028-0.060 0.058-0.092 0.088-0.258 0.245-0.691 0.656-0.691 1.28 0 0.685 0.495 1.18 0.733 1.418 0.454 0.454 0.931 0.684 1.418 0.684 0.637 0 1.059-0.428 1.311-0.683l0.054-0.054c0.355-0.355 0.528-0.802 0.528-1.365 0-0.056 0.003-0.114 0.006-0.173 0.016-0.367 0.041-0.922-0.381-1.344-0.381-0.38-0.885-0.38-1.051-0.38z"></path>
<path class="path4" d="M12 8.876c0.859 0 1.584-0.767 1.584-1.676 0-0.85-0.651-1.444-1.584-1.444-0.925 0-1.571 0.594-1.571 1.444 0 0.924 0.705 1.676 1.571 1.676z"></path>
<path class="path5" d="M24.8 11.185c-0.873 0-1.557 0.709-1.557 1.615 0 0.92 0.699 1.668 1.557 1.668 0.898 0 1.715-0.795 1.715-1.668 0-0.86-0.801-1.615-1.715-1.615z"></path>
<path class="path6" d="M7.2 12.837c-0.879 0-1.542 0.672-1.542 1.563s0.677 1.591 1.542 1.591c0.891 0 1.615-0.714 1.615-1.591s-0.709-1.563-1.615-1.563z"></path>
<path class="path7" d="M25.487 19.981c0-0.333 0-0.747-0.241-1.163-0.199-0.344-0.485-0.62-0.874-0.846-0.31-0.18-0.691-0.363-1.172-0.363-0.459 0-0.865 0.101-1.208 0.3-0.386 0.223-0.697 0.526-0.899 0.874-0.213 0.368-0.33 0.8-0.33 1.217 0 0.494 0.22 0.872 0.38 1.148l0.018 0.031c0.247 0.426 0.604 0.633 0.896 0.802l0.058 0.034c0.254 0.149 0.603 0.353 1.086 0.353 0.375 0 0.81-0.020 1.22-0.257 0.329-0.191 0.608-0.489 0.853-0.912 0.226-0.391 0.22-0.787 0.215-1.076l-0.002-0.14z"></path>
<path class="path8" d="M18.4 22.434c-0.84 0-1.74 0.629-1.74 1.566 0 0.873 0.846 1.699 1.74 1.699 0.887 0 1.725-0.826 1.725-1.699 0-0.937-0.892-1.566-1.725-1.566z"></path>
<path class="path9" d="M12.153 21.372c-0.265-0.267-0.708-0.713-1.353-0.713-0.611 0-1.167 0.339-1.484 0.656-0.389 0.39-0.641 0.972-0.641 1.484 0 0.623 0.448 0.997 0.688 1.198 0.045 0.037 0.090 0.073 0.128 0.111 0.029 0.029 0.058 0.060 0.086 0.090 0.224 0.237 0.599 0.633 1.223 0.633 0.626 0 1.007-0.397 1.234-0.635l0.080-0.083c0.216-0.217 0.62-0.62 0.62-1.314 0-0.561-0.183-1.029-0.544-1.39l-0.037-0.038z"></path>
</symbol>
<symbol id="icon-cupcake-cherry" viewBox="0 0 32 32">
<title>cupcake-cherry</title>
<path class="path1" d="M16.186 23.618v3.983c0 0.177-0.143 0.32-0.32 0.32s-0.32-0.143-0.32-0.32v-3.983c0-0.177 0.143-0.32 0.32-0.32s0.32 0.143 0.32 0.32zM19.554 23.089c-0.177-0.025-0.336 0.101-0.358 0.276l-0.516 3.959c-0.023 0.175 0.1 0.336 0.276 0.359 0.014 0.002 0.028 0.003 0.042 0.003 0.158 0 0.296-0.117 0.317-0.279l0.516-3.959c0.023-0.175-0.1-0.336-0.276-0.359zM12.164 23.089c-0.175 0.023-0.299 0.183-0.276 0.359l0.515 3.959c0.021 0.161 0.159 0.279 0.317 0.279 0.014 0 0.028-0.001 0.042-0.003 0.175-0.023 0.299-0.183 0.276-0.359l-0.515-3.959c-0.023-0.175-0.185-0.301-0.358-0.276zM23.943 21.022l-1.761 7.105c-0.002 0.121-0.059 0.236-0.164 0.307-0.069 0.046-1.745 1.133-6.144 1.133s-6.075-1.086-6.144-1.132c-0.080-0.053-0.136-0.134-0.159-0.227l-1.777-7.165c-1.282-1.187-1.788-2.88-1.716-4.055 0.074-1.204 0.923-2.824 2.418-3.755-0.238-0.561-0.332-1.28-0.333-1.289-0.074-0.589-0.029-1.208 0.129-1.791 0.229-0.848 0.703-1.621 1.304-2.144-0.581-1.059-0.394-2.397 0.506-3.255 0.076-0.072 0.155-0.138 0.237-0.2-0.429-0.937-1.462-1.375-1.473-1.38-0.196-0.081-0.29-0.305-0.209-0.5s0.304-0.29 0.499-0.211c0.058 0.023 1.288 0.538 1.856 1.718 0.986-0.371 2.143-0.145 2.915 0.664 0.263 0.276 0.455 0.6 0.581 0.952 0.348-0.227 0.66-0.506 0.916-0.871 0.224-0.321 0.36-0.837 0.322-1.227-0.013-0.136 0.047-0.268 0.157-0.348s0.255-0.095 0.38-0.040c0.988 0.437 2.423 1.145 3.484 2.232 0.934 0.952 1.352 2.498 1.101 4.011 2.018 0.88 4.319 2.608 4.868 4.508 0.544 1.867-0.051 5.082-1.79 6.961zM20.037 7.651c-0.135 0.205-0.32 0.382-0.592 0.499-0.303 0.129-0.615 0.136-0.89 0.142-0.243 0.005-0.472 0.011-0.66 0.096-0.265 0.121-0.499 0.296-0.656 0.493-0.113 0.14-0.205 0.3-0.302 0.471-0.159 0.276-0.323 0.562-0.592 0.796-0.48 0.418-1.149 0.462-1.782 0.125-0.508-0.269-0.928-0.276-1.306-0.008-0.298 0.212-0.528 0.521-0.797 0.902-0.37 0.531-1.025 1.101-1.753 1.101-0.219 0-0.431-0.051-0.632-0.151-0.262-0.134-0.461-0.295-0.637-0.437-0.189-0.153-0.346-0.275-0.538-0.341-0.002 0.171 0.004 0.341 0.024 0.508 0.034 0.263 0.163 0.888 0.342 1.216 2.531-0.070 7.020-0.632 10.795-3.395 0.134-0.604 0.141-1.328-0.024-2.017zM10.224 7.556c0.674-0.402 1.426-0.644 2.159-0.876 0.501-0.159 0.988-0.317 1.44-0.519-0.087-0.293-0.24-0.562-0.454-0.787-0.737-0.773-1.966-0.803-2.739-0.066-0.621 0.592-0.769 1.504-0.406 2.248zM8.393 20.552c0.010 0.009 0.014 0.021 0.023 0.030 0.011 0.012 0.024 0.020 0.033 0.033 0.030 0.038 0.55 0.69 1.56 0.946 0.193 0.049 0.372 0.069 0.538 0.071 0.714 0.005 1.148-0.356 1.17-0.375 0 0 0 0 0 0l0 0c0.084-0.074 0.198-0.109 0.313-0.091 0.099 0.015 0.186 0.068 0.244 0.144 0.017 0.020 0.154 0.184 0.42 0.351 0.002 0.001 0.004 0.002 0.006 0.003 0.065 0.040 0.137 0.081 0.217 0.12 0.020 0.009 0.044 0.017 0.064 0.027 0.066 0.030 0.133 0.060 0.209 0.085 0.044 0.015 0.097 0.026 0.145 0.039 0.060 0.016 0.116 0.035 0.18 0.048 0.093 0.019 0.196 0.030 0.3 0.039 0.027 0.003 0.049 0.008 0.076 0.010 0.039 0.002 0.071-0.002 0.109-0.001 1.016 0.018 1.568-0.5 1.592-0.523 0.039-0.038 0.084-0.065 0.132-0.083 0.004-0.001 0.008-0.001 0.012-0.002 0.042-0.014 0.084-0.024 0.128-0.024s0.086 0.009 0.127 0.024c0.004 0.001 0.008 0.001 0.012 0.002 0.048 0.018 0.093 0.045 0.132 0.083 0.024 0.023 0.576 0.541 1.592 0.523 0.037-0.001 0.070 0.003 0.108 0.001 0.028-0.002 0.050-0.007 0.077-0.010 0.104-0.010 0.207-0.020 0.3-0.039 0.065-0.013 0.121-0.032 0.18-0.048 0.048-0.013 0.1-0.024 0.145-0.039 0.076-0.026 0.143-0.056 0.209-0.085 0.020-0.009 0.044-0.017 0.064-0.027 0.081-0.039 0.153-0.079 0.218-0.12 0.002-0.001 0.004-0.002 0.006-0.003 0.267-0.167 0.404-0.33 0.42-0.351 0.060-0.076 0.146-0.129 0.245-0.144 0.115-0.018 0.229 0.018 0.313 0.091l0.001-0c0.022 0.019 0.457 0.38 1.171 0.375 0.165-0.001 0.344-0.022 0.537-0.071 1.005-0.255 1.524-0.9 1.559-0.945 0.006-0.009 0.014-0.015 0.021-0.023 0.005-0.006 0.007-0.014 0.012-0.020 1.405-1.459 2.013-3.965 1.804-5.67-0.215 0.128-0.407 0.293-0.557 0.495-0.713 0.96-1.085 2.224-2.067 2.966-0.925 0.701-2.323 0.822-3.376 0.336-0.787-0.365-1.507-0.835-2.41-0.851-0.602-0.013-1.152 0.176-1.638 0.531-0.896 0.65-1.747 1.514-2.957 1.101-0.64-0.218-0.931-0.582-1.498-0.909-0.602-0.342-1.315-0.365-1.914 0.003-0.598 0.366-1.148 0.361-1.497 0.298 0.253 0.599 0.64 1.196 1.187 1.677zM22.94 21.88c-0.281 0.165-0.619 0.322-1.027 0.425-0.11 0.028-0.217 0.048-0.321 0.063-0.006 0.001-0.012 0.003-0.018 0.004-0.017 0.002-0.032 0.002-0.048 0.004-0.311 0.037-0.598 0.024-0.853-0.022-0.011-0.002-0.021-0.005-0.033-0.007-0.077-0.015-0.152-0.032-0.223-0.052-0.012-0.004-0.022-0.008-0.034-0.011-0.068-0.020-0.134-0.041-0.196-0.065-0.008-0.003-0.014-0.006-0.022-0.009-0.135-0.053-0.256-0.111-0.356-0.17-0.363 0.323-1.016 0.702-1.925 0.76-0.073 0.004-0.143 0.006-0.212 0.006-0.027 0-0.051-0.003-0.077-0.004-0.034-0.001-0.068-0.003-0.1-0.004-0.082-0.004-0.162-0.010-0.238-0.020-0.011-0.001-0.022-0.003-0.033-0.004-0.631-0.082-1.089-0.32-1.355-0.503-0.266 0.182-0.724 0.42-1.356 0.503-0.011 0.001-0.021 0.003-0.032 0.004-0.077 0.009-0.156 0.015-0.238 0.020-0.033 0.002-0.067 0.004-0.101 0.004-0.026 0.001-0.050 0.004-0.077 0.004-0.069 0-0.14-0.002-0.212-0.006-0.909-0.058-1.562-0.437-1.925-0.76-0.101 0.059-0.221 0.117-0.356 0.17-0.008 0.003-0.014 0.006-0.022 0.009-0.061 0.023-0.128 0.044-0.196 0.065-0.012 0.004-0.022 0.008-0.034 0.011-0.071 0.020-0.146 0.036-0.223 0.052-0.011 0.002-0.021 0.005-0.033 0.007-0.254 0.046-0.541 0.060-0.852 0.022-0.016-0.002-0.032-0.002-0.048-0.004-0.006-0.001-0.012-0.003-0.018-0.004-0.105-0.015-0.212-0.035-0.322-0.063-0.409-0.104-0.747-0.26-1.028-0.425l1.483 5.982c0.436 0.223 2.103 0.937 5.598 0.937 3.448 0 5.116-0.694 5.581-0.928l1.484-5.99z"></path>
</symbol>
<symbol id="icon-cupcake-sprinkles" viewBox="0 0 32 32">
<title>cupcake-sprinkles</title>
<path class="path1" d="M16.322 24.020v3.983c0 0.177-0.143 0.32-0.32 0.32s-0.32-0.143-0.32-0.32v-3.983c0-0.177 0.143-0.32 0.32-0.32s0.32 0.143 0.32 0.32zM19.689 23.49c-0.176-0.025-0.336 0.101-0.358 0.276l-0.515 3.96c-0.023 0.175 0.1 0.336 0.276 0.358 0.014 0.002 0.028 0.003 0.042 0.003 0.158 0 0.296-0.117 0.317-0.279l0.515-3.96c0.023-0.175-0.1-0.336-0.276-0.359zM24.083 21.41l-1.765 7.119c-0.002 0.121-0.059 0.236-0.164 0.307-0.069 0.046-1.745 1.132-6.144 1.132s-6.075-1.086-6.145-1.132c-0.079-0.053-0.136-0.134-0.159-0.227l-1.783-7.191c-2.42-3.020-1.349-8.258 1.215-10.791 0 0 0 0 0-0-0.095-0.325-0.148-0.673-0.148-1.050 0-1.491 0.923-2.513 2.548-2.849-0-0.015-0.004-0.029-0.004-0.044 0-1.897 1.211-2.629 2.012-3.114 0.776-0.47 0.848-0.579 0.638-0.972-0.068-0.126-0.059-0.28 0.022-0.398s0.22-0.182 0.363-0.164c2.724 0.327 5.904 1.741 5.904 4.649 0 0.019-0.004 0.036-0.004 0.055 1.625 0.368 2.549 1.387 2.549 2.837 0 0.38-0.054 0.731-0.15 1.058 2.557 2.531 3.625 7.756 1.215 10.776zM16.003 22.183l0.001-0-0-0c0 0-0.001 0-0.001 0.001zM12.303 6.684c0 0.887 1.556 1.532 3.701 1.532s3.701-0.644 3.701-1.532c0-2.635-3.249-3.531-4.648-3.795 0.016 0.654-0.597 1.025-1.113 1.337-0.769 0.466-1.641 0.994-1.641 2.458zM9.759 9.576c0 0.803 0 3.246 6.245 3.246 3.464 0 5.457-0.723 6.052-2.2 0.004-0.011 0.007-0.021 0.011-0.032 0.119-0.307 0.183-0.643 0.183-1.015 0-1.354-1.030-1.891-1.996-2.099-0.547 0.934-2.093 1.506-4.25 1.506-2.164 0-3.714-0.575-4.256-1.515-0.963 0.185-1.99 0.709-1.99 2.108zM7.342 17.792c0.742 0.444 1.201 0.090 1.868-0.428 0.752-0.583 1.687-1.31 3.233-0.785 0.447 0.152 0.829 0.5 1.198 0.836 0.331 0.301 0.643 0.586 0.965 0.706 0.715 0.267 1.532 0.068 2.033-0.495 0.134-0.15 0.276-0.343 0.428-0.547 0.561-0.758 1.254-1.697 2.344-1.629 0.664 0.044 1.1 0.335 1.523 0.616 0.18 0.12 0.367 0.244 0.574 0.351 0.567 0.295 1.107 0.243 1.65-0.157 0.51-0.375 0.917-0.98 1.193-1.479-0.362-1.291-0.996-2.493-1.819-3.388-0.908 1.459-3.090 2.199-6.528 2.199-3.443 0-5.626-0.741-6.532-2.204-1.452 1.576-2.325 4.109-2.131 6.405zM23.075 22.284c-0.281 0.164-0.618 0.319-1.024 0.423-0.921 0.233-1.673-0.018-2.102-0.266-0.323 0.282-0.955 0.697-1.927 0.759-0.917 0.053-1.625-0.249-2.023-0.528-0.367 0.256-0.99 0.534-1.803 0.534-0.068 0-0.138-0.002-0.208-0.006-0.907-0.058-1.561-0.438-1.925-0.76-0.429 0.248-1.182 0.501-2.104 0.267-0.41-0.104-0.749-0.261-1.031-0.427l1.484 5.984c0.436 0.223 2.103 0.937 5.598 0.937 3.479 0 5.123-0.692 5.58-0.926l1.485-5.99zM12.3 23.49c-0.175 0.023-0.299 0.183-0.276 0.359l0.515 3.96c0.021 0.161 0.158 0.279 0.317 0.279 0.014 0 0.028-0.001 0.042-0.003 0.175-0.022 0.299-0.183 0.276-0.358l-0.515-3.96c-0.023-0.175-0.184-0.3-0.358-0.276zM13.995 6.376l0.601 0.263c0.042 0.018 0.085 0.027 0.128 0.027 0.124 0 0.241-0.072 0.293-0.192 0.071-0.162-0.003-0.351-0.165-0.421l-0.601-0.263c-0.163-0.071-0.351 0.003-0.421 0.165s0.003 0.351 0.165 0.422zM17.673 6.283c0.060 0 0.119-0.016 0.173-0.051l0.552-0.355c0.148-0.096 0.192-0.293 0.096-0.442s-0.293-0.192-0.442-0.096l-0.552 0.355c-0.148 0.096-0.192 0.293-0.096 0.442 0.061 0.095 0.164 0.147 0.269 0.147zM15.519 5.141c0.027 0 0.055-0.004 0.082-0.011l0.634-0.167c0.171-0.045 0.273-0.22 0.228-0.391s-0.222-0.272-0.391-0.228l-0.634 0.167c-0.171 0.045-0.273 0.22-0.228 0.391 0.038 0.143 0.168 0.238 0.309 0.238zM19.36 9.772l0.601 0.263c0.042 0.018 0.085 0.027 0.128 0.027 0.124 0 0.241-0.072 0.293-0.192 0.071-0.162-0.003-0.351-0.165-0.421l-0.601-0.263c-0.163-0.071-0.351 0.003-0.421 0.165s0.003 0.35 0.165 0.421zM11.644 9.977c0.060 0 0.119-0.016 0.173-0.051l0.552-0.355c0.149-0.095 0.192-0.293 0.096-0.442s-0.293-0.192-0.442-0.096l-0.552 0.355c-0.149 0.095-0.192 0.293-0.096 0.442 0.061 0.095 0.164 0.147 0.269 0.147zM16.905 10.763c0.027 0 0.055-0.004 0.082-0.011l0.634-0.167c0.171-0.045 0.273-0.22 0.228-0.391s-0.221-0.272-0.391-0.228l-0.634 0.167c-0.171 0.045-0.273 0.22-0.228 0.391 0.038 0.143 0.168 0.238 0.309 0.238zM14.159 10.799c0.039 0.142 0.168 0.236 0.308 0.236 0.028 0 0.056-0.004 0.084-0.012 0.171-0.046 0.271-0.222 0.225-0.393l-0.172-0.633c-0.047-0.171-0.222-0.271-0.393-0.225s-0.271 0.222-0.225 0.393l0.172 0.634z"></path>
</symbol>
<symbol id="icon-donut" viewBox="0 0 32 32">
<title>donut</title>
<path class="path1" d="M16 0.667c-8.467 0-15.333 6.867-15.333 15.333 0 1.333 0.2 2.667 0.533 3.933v0l0.133 0.467c0 0 0 0 0 0l0.133 0.333c2 6.267 7.933 10.6 14.533 10.6 8.133 0 14.8-6.333 15.267-14.4v0-0.267c0-0.067 0-0.133 0-0.2 0-0.133 0-0.267 0-0.4 0.067-8.533-6.8-15.4-15.267-15.4zM16 11.4c2.533 0 4.6 2.067 4.6 4.6s-2.067 4.6-4.6 4.6-4.6-2.067-4.6-4.6 2.067-4.6 4.6-4.6zM16 30.533c-6.2 0-11.8-4.067-13.733-9.867 0.2 0 0.4-0.067 0.533-0.067 0 0 0.067 0 0.067 0 0.133 0 0.267 0 0.333 0s0.067 0 0.133 0c0.133 0 0.267 0 0.4 0 1.2 0.2 2.067 1.067 3 2 0.667 0.667 1.4 1.4 2.333 1.867 1.2 0.6 2.6 0.733 3.8 0.8 0.467 0 0.867 0.067 1.333 0.067 0.933 0 1.733-0.133 2.333-0.4 0.467-0.2 0.867-0.467 1.2-0.733 0.4-0.267 0.733-0.533 1.133-0.733 0.2-0.067 0.467-0.133 0.733-0.133 0.467 0 0.933 0.133 1.133 0.6 0.067 0.133 0.067 0.333 0.067 0.533 0 0.333 0 0.667 0.2 0.933 0 0.067 0.067 0.133 0.133 0.133 0.067 0.067 0.067 0.067 0.133 0.133 0.267 0.267 0.6 0.4 1 0.4 0 0 0 0 0.067 0v0 0c0.2 0 0.4 0 0.533-0.067 0.6-0.2 1.067-0.667 1.333-1.067 0.8-1 1.333-2.2 1.6-3.467 0.067-0.333 0.133-0.6 0.133-0.933 0.067-0.533 0.133-1.067 0.333-1.6 0.2-0.6 0.733-1.333 1.467-1.4 0.2 0 0.467 0 0.733 0 0.133 0 0.333 0 0.467 0.067 0.133 0 0.267 0 0.333 0s0.067 0 0.133 0 0.133 0 0.2 0c0.067 0 0.133 0 0.133 0 0.067 0 0.133 0 0.2-0.067 0.067 0 0.133-0.067 0.267-0.067 0.067 0 0.133 0 0.133-0.067 0 0 0.067 0 0.067 0-0.6 7.333-6.8 13.133-14.4 13.133z"></path>
</symbol>
</defs>
</svg>
